<?xml version="1.0" encoding="utf-8"?>
<!-- Generator: Adobe Illustrator 16.0.3, SVG Export Plug-In . SVG Version: 6.00 Build 0)  -->
<!DOCTYPE svg PUBLIC "-//W3C//DTD SVG 1.1//EN" "http://www.w3.org/Graphics/SVG/1.1/DTD/svg11.dtd">
<svg version="1.1" xmlns="http://www.w3.org/2000/svg" xmlns:xlink="http://www.w3.org/1999/xlink" x="0px" y="0px" width="1450px" height="400px" viewBox="0 0 1450 400" enable-background="new 0 0 1450 400" xml:space="preserve">
<g id="mid">
	<linearGradient id="SVGID_1_" gradientUnits="userSpaceOnUse" x1="725" y1="452.9873" x2="725" y2="-19.4099">
		<stop offset="0" style="stop-color:#F7D778"/>
		<stop offset="1" style="stop-color:#FB9768"/>
	</linearGradient>
	<path display="inline" opacity="0.1" fill="url(#SVGID_1_)" d="M1430.742,240.75c-15.123,0.451-20.033-8.719-35.42-8.083
		c-21.075,0.873-31.02-2.59-49.994,4.652c-42.92,16.379-101.119,9.565-144.667,1.899c-23.776-4.184-47.493-8.758-71.178-13.525
		c-22.702-4.568-53.639-17.929-76.496-15.596c-15.362,1.568-25.823,5.092-42.6,2.232c-14.216-2.419-29.4-7.726-43.883-6.916
		c-21.398,1.195-40.682,1.951-60.433,10.469c-26.598,11.47-54.534,23.251-83.469,25.133c-28.082,1.822-47.816-0.495-75.854-7.015
		c-6.359-1.479-11.455-3.321-21.75-3.321s-15.391,1.843-21.75,3.321c-28.037,6.52-47.771,8.837-75.854,7.015
		c-28.935-1.882-56.871-13.663-83.469-25.133c-19.751-8.518-39.034-9.273-60.433-10.469c-14.482-0.81-29.667,4.497-43.883,6.916
		c-16.776,2.859-27.237-0.664-42.6-2.232c-22.857-2.333-53.794,11.027-76.496,15.596c-23.685,4.768-47.401,9.342-71.178,13.525
		c-43.547,7.666-101.747,14.479-144.667-1.899c-18.975-7.242-28.919-3.779-49.995-4.652c-15.387-0.636-20.296,8.534-35.419,8.083
		C10.875,240.5,6.797,242.039,0,242.039V400h725h725V242.039C1443.203,242.039,1439.125,240.5,1430.742,240.75z"/>
	<linearGradient id="SVGID_2_" gradientUnits="userSpaceOnUse" x1="725" y1="442.9961" x2="725" y2="59.6771">
		<stop  offset="0" style="stop-color:#F7D778"/>
		<stop  offset="1" style="stop-color:#FB9768"/>
	</linearGradient>
	<path display="inline" opacity="0.3" fill="url(#SVGID_2_)" d="M1403.988,272.844c-23.206,2.889-24.808-33.93-47.764-28.592
		c-20.432,4.75-69.513,23.801-89.976,22.473c-21.085-1.371-27.156-1.655-46.538-10.014c-14.393-6.207-28.445-6.758-44.039-7.629
		c-10.554-0.59-47.071,20.061-58.266,18.918c-16.656-1.7-43.957-7.469-60.5-4.14c-17.26,3.474-34.543,6.808-51.87,9.856
		c-31.733,5.586-39.416,21.677-70.693,9.74c-13.827-5.277-58.951-15.324-74.31-15.96c-11.213-0.464-21.672-1.853-32.598-3.483
		c-21.747-3.244-42.526-14.779-63.473-17.91c-12.485-1.865-25.676-3.176-38.963-4.064c-13.287,0.889-26.478,2.199-38.963,4.064
		c-20.946,3.131-41.726,14.666-63.473,17.91c-10.926,1.631-21.385,3.02-32.598,3.483c-15.358,0.636-60.482,10.683-74.31,15.96
		c-31.277,11.937-38.96-4.154-70.693-9.74c-17.327-3.049-34.61-6.383-51.87-9.856c-16.543-3.329-43.843,2.439-60.5,4.14
		c-11.194,1.143-47.712-19.508-58.266-18.918c-15.594,0.871-29.646,1.422-44.039,7.629c-19.381,8.358-25.453,8.643-46.539,10.014
		c-20.463,1.328-69.543-17.723-89.975-22.473c-22.956-5.338-24.558,31.48-47.764,28.592c-14.579-1.813-30.356-1.941-46.012-0.743
		V400h725h725V272.101C1434.344,270.902,1418.567,271.031,1403.988,272.844z"/>
	<linearGradient id="SVGID_3_" gradientUnits="userSpaceOnUse" x1="725" y1="438.7422" x2="725" y2="93.347">
		<stop  offset="0" style="stop-color:#F7D778"/>
		<stop  offset="1" style="stop-color:#FB9768"/>
	</linearGradient>
	<path display="inline" opacity="0.5" fill="url(#SVGID_3_)" d="M1405.291,302.037c-9.717-2.127-27.183-20.64-37.141-22.664
		c-10.582-2.151-20.816-21.672-32.036-21.706c-18.066-0.055-37.424,17.286-55.583,20c-12.91,1.93-18.782,26.854-32.186,28.854
		c-6.734,1.005-13.18,1.86-20.092,2.146c-9.467,0.392-5.625,8.927-51.941,12.666c-37.156,3-41.907-15.192-52.545-17.333
		c-10.196-2.052-40.944-18.627-51.21-17.579c-6.899,0.704-32.338-2.467-38.843-2.104c-9.61,0.537-18.271,0.876-27.142,4.702
		c-11.946,5.151-32.162,19.07-45.042,16.98c-30.813-5-54.232-23.747-68.535-25.527c-17.272-2.148-37.279-0.489-54.225,3.525
		c-36.957,8.757-68.46,21.45-113.771,21.45s-76.814-12.693-113.771-21.45c-16.945-4.015-36.952-5.674-54.225-3.525
		C542.701,282.253,519.281,301,488.469,306c-12.88,2.09-33.096-11.829-45.042-16.98c-8.87-3.826-17.531-4.165-27.142-4.702
		c-6.505-0.363-31.943,2.808-38.843,2.104c-10.266-1.048-41.014,15.527-51.21,17.579c-10.638,2.141-15.389,20.333-52.545,17.333
		c-46.316-3.739-42.475-12.274-51.941-12.666c-6.912-0.286-13.357-1.142-20.091-2.146c-13.403-2-19.276-26.924-32.186-28.854
		c-18.16-2.714-37.517-20.055-55.583-20c-11.22,0.034-21.455,19.555-32.036,21.706c-9.958,2.024-27.424,20.537-37.141,22.664
		C31.961,304.827,6.948,313.432,0,313.432V400h725h725v-86.568C1443.052,313.432,1418.039,304.827,1405.291,302.037z"/>
</g>
</svg>
