<?xml version="1.0" encoding="utf-8"?>
<!-- Generator: Adobe Illustrator 21.0.2, SVG Export Plug-In . SVG Version: 6.00 Build 0)  -->
<svg version="1.1" xmlns="http://www.w3.org/2000/svg" xmlns:xlink="http://www.w3.org/1999/xlink" x="0px" y="0px"
	 viewBox="0 0 1450 400" width="1450" height="400" style="enable-background:new 0 0 1450 400;" xml:space="preserve">
<style type="text/css">
	.st0{opacity:0.8;fill:#0D1E40;}
	.st1{opacity:0.8;fill:url(#SVGID_1_);}
	.st2{fill:#FB9768;}
	.st3{fill:#EC754F;}
	.st4{fill:#C96442;}
	.st5{fill:#FBC997;}
	.st6{fill:#ECB176;}
</style>
<g id="front">
	<g>
		<rect y="290" class="st2" width="1450" height="110"/>
		<polygon class="st3" points="1450,400 0,400 0,360 19.3,360 122,380.5 185,367.5 201,370.5 335.3,373.5 366.1,372.2 505.8,377.4 
			543,385.5 570,376.5 582,374.5 893.6,374.3 1079,366 1219,383.5 1243,380.5 1318.9,360.8 1399,361.2 1410,360 1450,360 		"/>
		<polygon class="st3" points="1026,360 1026,360 1026,360 		"/>
		<polygon class="st3" points="1026,360 1026,360 1046,360 1046,360 		"/>
		<polygon class="st4" points="19.3,360 23.7,400 122,399.8 120.4,393.9 122,380.5 		"/>
		<polygon class="st4" points="197.2,400 187.2,400 185,367.5 201,370.5 		"/>
		<polygon class="st4" points="335.3,373.5 319.2,389.3 317,400 336,400 		"/>
		<polygon class="st4" points="545.6,400 506,400 503.5,394.1 505.8,377.4 543,385.5 		"/>
		<polygon class="st4" points="1220.2,400 1079,400 1081.5,383 1079,366 1219,383.5 		"/>
		<polygon class="st4" points="1405.7,400 1319,400 1320.7,389 1317.7,373.7 1318.9,360.8 1399,361.2 1410,360 1404.7,374.7 
			1407.2,385.7 		"/>
	</g>
</g>
</svg>
