<?xml version="1.0" encoding="utf-8"?>
<!-- Generator: Adobe Illustrator 16.0.3, SVG Export Plug-In . SVG Version: 6.00 Build 0)  -->
<!DOCTYPE svg PUBLIC "-//W3C//DTD SVG 1.1//EN" "http://www.w3.org/Graphics/SVG/1.1/DTD/svg11.dtd">
<svg version="1.1" xmlns="http://www.w3.org/2000/svg" xmlns:xlink="http://www.w3.org/1999/xlink" x="0px" y="0px" width="1450px"
     height="400px" viewBox="0 0 1450 400" enable-background="new 0 0 1450 400" xml:space="preserve">
  <g id="m2_1_">
    <g>
      <polygon fill="#e6b8a1" points="496,290 519.7,231.2 540.591,238.772 562.887,249.909 587.659,207.591 614.502,192 
                                      661.903,208.333 679.318,236.546 699.137,241 728.863,290 		"/>
      <polygon fill="#cc967a" points="496,290 503.432,256.591 513.341,236.546 519.7,231.2 528.204,245.454 530.682,261.046 
                                      550.5,276.637 558.514,264.063 562.887,249.909 587.659,207.591 614.502,192 614.909,207.591 622.341,223.182 617.387,245.454 
                                      632.25,245.454 656.591,234.546 656.591,250.137 659.068,261.272 647.424,277.232 649.159,290 		"/>
      <polygon fill="#e6b8a1" points="562,290 565.5,284 572.5,280 571.333,272 583,253 596.809,249 607.5,251 613.333,256 627.333,265 
                                      632.667,267 636.548,273.955 644.076,280.279 654,290 		"/>
      <polygon fill="#cc967a" points="562,290 565.5,284 569.273,278.354 571.333,272 583,253 596.809,249 595.833,253 598.167,257 
                                      602.833,261 608.667,262 609.833,270 622.667,275 629.667,280 630.833,285 634.333,290 		"/>
    </g>
  </g>
  <g id="m1">
    <g>
      <path fill="#e6b8a1" d="M60,290l15-37.338l32-22.402c0,0,16,17.922,23,17.922s20-44.805,28-49.285S208,175,208,175l37,57
                              c0,0,30,11.701,34,11.701c1.242,0,9.342,10.622,9.342,10.622L299,252l13,9l22,29H60z"/>
      <path fill="#cc967a" d="M112,261c0,0-9-3-10-7c-0.767-3.068,5-23.74,5-23.74l-32,22.402L60,290h79l-22-17L112,261z"/>
      <path fill="#cc967a" d="M209,258l3,5l35,27h38l-21-27l-16-8l-11-14l-22-15.001V220l-24-24l17-21l-53,26l-25,47l8,8l4,8
                              c-4,0,13,2,13,2l8,3l36,21h28.091L211,277l-12-23l-7-5l-6-9l18,9L209,258z"/>
      <path fill="#e6b8a1" d="M32,290l7.879-14.786c0,0,11.515-4.795,16.363-5.194c4.849-0.4,9.697,5.595,9.697,5.595L72,290H32z"/>
      <path fill="#cc967a" d="M32,290l7.879-14.786c0,0,11.515-4.795,16.363-5.194c4.849-0.4-1.818,10.237-1.818,10.237L58.667,290H32z"
            />
      <polygon fill="#e6b8a1" points="302,290 314,272 326,260 338,269 353,272 362,260 386,265 419.903,290 		"/>
      <polygon fill="#cc967a" points="302,290 314,272 326,260 325,274 334,282 353,272 362,260 370,275 364.903,290 		"/>
      <polygon fill="#cc967a" points="386,282 382,285 380,290 404,290 396,286 393,280 387,277 		"/>
    </g>
  </g>
  <g id="m3">
    <g>
      <path fill="#e6b8a1" d="M1439,290l-14.422-24l-28.845-12l-10.576-29l-19.229-32l-36.537-13l-22.113-24h-19.23l-25.959-29
                              c0,0-19.23,18-24.999,29s-14.422,37-14.422,37l-23.076-26c0,0-13.46-13-25.96-20c-12.499-7-37.498,20-37.498,20l-24.036-8
                              l-22.114,21l-19.229,45l-17.307,11l-26.922-21l-27.883-10c0,0-9.615-17-16.346-17s-41.344,37-41.344,37l-37.497,16l-30.768,22
                              L790,290H1439z"/>
      <path fill="#cc967a" d="M989,255l-5-22l-5-5l1-11l-4-5c0,0,13.026-24,6.296-24s-41.344,37-41.344,37l-37.497,16l-30.768,22
                              L790,290h225l-20-32L989,255z"/>
      <path fill="#cc967a" d="M1361,269l-35-14l-5.843-14l-19.229-32L1318,188l-21.723-24L1273,162l-10.912-35c0,0-19.23,18-24.999,29
                              s-14.422,37-14.422,37L1207,254l-20-2l-3-9l-7-8l7-10l5-15l-21,5l-8-9l14-23c0,0,11.911-12.074,9-14
                              c-1.675-1.108-7.693-21.062-9.369-22c-12.499-7-37.498,20-37.498,20l-6.133,8l-14,5l-5-6l1.097-15l-22.114,21l-19.229,45
                              l-17.307,11L1035,290h358L1361,269z"/>
      <polygon fill="#e6b8a1" points="1055,290 1067,266 1079,250 1091,262 1106,266 1115,250 1139,256.667 1172.903,290 		"/>
      <polygon fill="#cc967a" points="1055,290 1067,266 1079,250 1078,268.667 1087,279.333 1106,266 1115,250 1123,270 1117.903,290 
                                      "/>
    </g>
  </g>
</svg>
