<?xml version="1.0" encoding="utf-8"?>
<!-- Generator: Adobe Illustrator 21.0.2, SVG Export Plug-In . SVG Version: 6.00 Build 0)  -->
<svg version="1.1" xmlns="http://www.w3.org/2000/svg" xmlns:xlink="http://www.w3.org/1999/xlink" x="0px" y="0px"
	 viewBox="0 0 1450 400" width="1450" height="400" style="enable-background:new 0 0 1450 400;" xml:space="preserve">
<style type="text/css">
	.st0{opacity:0.8;fill:#0D1E40;}
	.st1{opacity:0.8;fill:url(#SVGID_1_);}
	.st2{fill:#FB9768;}
	.st3{fill:#EC754F;}
	.st4{fill:#C96442;}
	.st5{fill:#FBC997;}
	.st6{fill:#ECB176;}
</style>
<g id="m2_1_">
	<g>
		<polygon class="st5" points="496,290 519.7,231.2 540.6,238.8 562.9,249.9 587.7,207.6 614.5,192 661.9,208.3 679.3,236.5 
			699.1,241 728.9,290 		"/>
		<polygon class="st6" points="496,290 503.4,256.6 513.3,236.5 519.7,231.2 528.2,245.5 530.7,261 550.5,276.6 558.5,264.1 
			562.9,249.9 587.7,207.6 614.5,192 614.9,207.6 622.3,223.2 617.4,245.5 632.2,245.5 656.6,234.5 656.6,250.1 659.1,261.3 
			647.4,277.2 649.2,290 		"/>
		<polygon class="st5" points="562,290 565.5,284 572.5,280 571.3,272 583,253 596.8,249 607.5,251 613.3,256 627.3,265 632.7,267 
			636.5,274 644.1,280.3 654,290 		"/>
		<polygon class="st6" points="562,290 565.5,284 569.3,278.4 571.3,272 583,253 596.8,249 595.8,253 598.2,257 602.8,261 
			608.7,262 609.8,270 622.7,275 629.7,280 630.8,285 634.3,290 		"/>
	</g>
</g>
<g id="m1">
	<g>
		<path class="st5" d="M60,290l15-37.3l32-22.4c0,0,16,17.9,23,17.9s20-44.8,28-49.3s50-23.9,50-23.9l37,57c0,0,30,11.7,34,11.7
			c1.2,0,9.3,10.6,9.3,10.6L299,252l13,9l22,29H60z"/>
		<path class="st6" d="M112,261c0,0-9-3-10-7c-0.8-3.1,5-23.7,5-23.7l-32,22.4L60,290h79l-22-17L112,261z"/>
		<path class="st6" d="M209,258l3,5l35,27h38l-21-27l-16-8l-11-14l-22-15v-6l-24-24l17-21l-53,26l-25,47l8,8l4,8c-4,0,13,2,13,2l8,3
			l36,21h28.1L211,277l-12-23l-7-5l-6-9l18,9L209,258z"/>
		<path class="st5" d="M32,290l7.9-14.8c0,0,11.5-4.8,16.4-5.2c4.8-0.4,9.7,5.6,9.7,5.6L72,290H32z"/>
		<path class="st6" d="M32,290l7.9-14.8c0,0,11.5-4.8,16.4-5.2c4.8-0.4-1.8,10.2-1.8,10.2l4.2,9.7H32z"/>
		<polygon class="st5" points="302,290 314,272 326,260 338,269 353,272 362,260 386,265 419.9,290 		"/>
		<polygon class="st6" points="302,290 314,272 326,260 325,274 334,282 353,272 362,260 370,275 364.9,290 		"/>
		<polygon class="st6" points="386,282 382,285 380,290 404,290 396,286 393,280 387,277 		"/>
	</g>
</g>
<g id="m3">
	<g>
		<path class="st5" d="M1439,290l-14.4-24l-28.8-12l-10.6-29l-19.2-32l-36.5-13l-22.1-24H1288l-26-29c0,0-19.2,18-25,29
			s-14.4,37-14.4,37l-23.1-26c0,0-13.5-13-26-20c-12.5-7-37.5,20-37.5,20l-24-8l-22.1,21l-19.2,45l-17.3,11l-26.9-21l-27.9-10
			c0,0-9.6-17-16.3-17c-6.7,0-41.3,37-41.3,37l-37.5,16l-30.8,22L790,290H1439z"/>
		<path class="st6" d="M989,255l-5-22l-5-5l1-11l-4-5c0,0,13-24,6.3-24c-6.7,0-41.3,37-41.3,37l-37.5,16l-30.8,22L790,290h225
			l-20-32L989,255z"/>
		<path class="st6" d="M1361,269l-35-14l-5.8-14l-19.2-32l17.1-21l-21.7-24l-23.3-2l-10.9-35c0,0-19.2,18-25,29s-14.4,37-14.4,37
			l-15.7,61l-20-2l-3-9l-7-8l7-10l5-15l-21,5l-8-9l14-23c0,0,11.9-12.1,9-14c-1.7-1.1-7.7-21.1-9.4-22c-12.5-7-37.5,20-37.5,20
			l-6.1,8l-14,5l-5-6l1.1-15l-22.1,21l-19.2,45l-17.3,11l-18.4,54h358L1361,269z"/>
		<polygon class="st5" points="1055,290 1067,266 1079,250 1091,262 1106,266 1115,250 1139,256.7 1172.9,290 		"/>
		<polygon class="st6" points="1055,290 1067,266 1079,250 1078,268.7 1087,279.3 1106,266 1115,250 1123,270 1117.9,290 		"/>
	</g>
</g>
</svg>
