<?xml version="1.0" encoding="utf-8"?>
<!-- Generator: Adobe Illustrator 21.0.2, SVG Export Plug-In . SVG Version: 6.00 Build 0)  -->
<svg version="1.1" xmlns="http://www.w3.org/2000/svg" xmlns:xlink="http://www.w3.org/1999/xlink" x="0px" y="0px"
     viewBox="0 0 160 75" style="enable-background:new 0 0 160 75;" xml:space="preserve">
  <style type="text/css">
    .st0{fill:#A65236;}
    .st1{fill:#FFCC99;}
    .st2{fill:#FB9768;}
    .st3{fill:#EC754F;}
    .st4{fill:#C96442;}
  </style>

  <g id="stone1">
    <g>
      <polygon class="st0" points="0,68.4 3.4,46.3 11.7,31.9 16.8,28 33.1,33.9 46.3,38.8 62.6,11.2 81.5,0 114.8,11.7 127.1,31.9 
                                   141,35.1 160,66.8 154.7,73.7 110.7,74.4 98.6,71.9 37.6,73.3 10.7,75 		"/>
      <polygon class="st1" points="4.6,67.8 7.8,47.5 18.6,30.8 32.4,35.8 47.2,43.1 63.6,15.3 81.4,5 112.9,15.7 124.4,34.3 
                                   137.5,37.2 155.4,66.3 150.4,72.7 109,73.3 97.5,71 40,72.3 13,73.3 		"/>
      <polygon class="st2" points="4.6,67.8 7.8,47.5 18.6,30.8 20.1,33.4 24.2,40.2 23.3,35.3 25.5,35.1 32.2,38.5 35.4,40.7 
                                   46.5,45.3 63.6,15.3 81.4,5 81.7,15.4 86.6,25.5 85.4,31.1 87.8,26 87,20.1 85.4,15.7 87.3,13.1 90.7,13.5 108.7,18.9 122.6,31.5 
                                   124.4,34.3 120.9,36.1 120,40.1 127.5,45.7 141.6,47.5 155.4,66.3 150.4,72.7 109,73.3 97.5,71 40,72.3 13,73.3 		"/>
      <polygon class="st3" points="4.6,67.8 7.8,47.5 14.3,34.3 18.6,30.8 24.2,40.2 25.8,50.4 39,60.7 44.3,52.4 47.2,43.1 63.6,15.3 
                                   81.4,5 81.7,15.3 86.6,25.5 83.3,40.2 93.2,40.2 109.3,33 109.3,43.2 111,50.6 103.3,61.1 109.5,71 81.2,69.9 46.9,72.5 13,73.3 
                                   "/>
      <polygon class="st4" points="9.1,60.4 15.4,53.2 18.1,45.4 17.9,38.5 14.3,34.3 18.6,30.8 24.2,40.2 25.8,50.4 22.6,54.9 
                                   27.4,62.6 34.2,64.3 39,60.7 44.3,52.4 55.6,47.5 64.2,41.6 74.8,29.4 81.7,15.3 86.6,25.5 83.3,40.2 78.7,47.5 82.2,54.3 
                                   89.3,53 98.8,49 103.3,61.1 109.5,71 109.3,71.8 81.2,69.9 46.9,72.5 13,73.3 		"/>
      <path class="st3" d="M60.3,72.3"/>
      <path class="st3" d="M56,72.3"/>
      <polygon class="st3" points="155.4,66.3 147.6,67.5 138,61.9 129.8,64.2 118,65.3 109.5,71 108.5,73.2 150.4,72.5 		"/>
      <polygon class="st4" points="155.4,66.3 149.4,71.5 145.4,71.1 138.2,68.4 134.5,67.6 125.5,70.6 119.3,70.6 111.5,71.6 
                                   108.5,73.4 150.4,72.6 		"/>
      <path class="st0" d="M155.4,66.3l-4.8,6.8L111.5,74l-14.3-2.9l-34.4,1.1L11.7,74l-8.1-5.9l4.2-20.7l1.3,12.9l5,6.9l11,2.9L40,71.3
                           l4.8-3.8l4.5-9l7.5-3.6l-5,8l2.4,5.5l10,0.3l10.1-0.3l8.2-1.9l-0.6-5.3l0.3-6.8l8.5,1.9l0.3,4.1c0,0,3.7,3.8,3.7,3.8l0.9,3.9
                           l13.8,3.1l13.5,0.2l8.1,1.2h13.5h5.2l5-5.6L155.4,66.3z"/>
    </g>
  </g>

</svg>
