<?xml version="1.0" encoding="utf-8"?>
<!-- Generator: Adobe Illustrator 21.0.2, SVG Export Plug-In . SVG Version: 6.00 Build 0)  -->
<svg version="1.1" xmlns="http://www.w3.org/2000/svg" xmlns:xlink="http://www.w3.org/1999/xlink" x="0px" y="0px"
	 viewBox="0 0 140 140" style="enable-background:new 0 0 140 140;" xml:space="preserve">
<style type="text/css">
	.st0{fill:#A65236;}
	.st1{fill:#FFCC99;}
	.st2{fill:#FB9768;}
	.st3{fill:#EC754F;}
	.st4{fill:#C96442;}
</style>
<g id="stone2">
	<g>
		<polygon class="st0" points="89.9,0 103.9,50.1 124.8,72.5 132.7,93.9 140,116.5 136.4,128.9 111.9,138.2 10.9,138.2 0,116.5 
			15.3,91.6 20.2,60.8 56.1,0 		"/>
		<polygon class="st1" points="87.6,4 99.7,53.2 121.6,74.3 129.1,94.4 136,115.8 132.6,127.4 109.5,136.2 14.3,136.2 4,115.8 
			18.4,92.2 23,63.2 58.2,4 		"/>
		<polygon class="st2" points="85.2,8 98.3,52.9 90.1,51.5 83.2,51.4 77.9,51.5 83.2,57.8 92.4,62.9 109,63.1 121.6,73.9 
			129.1,94.2 136,115.8 132.6,127.4 109.5,136.2 14.3,136.2 4,115.8 18.4,92.2 24.6,63 50.6,30.8 59.6,8 		"/>
		<polygon class="st3" points="75,83.1 102.4,81.3 121.6,74 129.1,94.3 136,115.8 132.6,127.4 109.5,136.2 14.3,136.2 4,115.8 
			18.4,92.2 28.2,68.4 50.6,30.3 58.6,61.4 		"/>
		<polygon class="st2" points="38.8,78.8 49,97.6 67,104.5 75.3,116.1 55.1,113.1 34.9,103.8 27.9,93.1 		"/>
		<polygon class="st2" points="129.9,97.7 136,115.8 108.7,116.2 103.9,109.6 103.9,101.1 		"/>
		<polygon class="st3" points="85.2,7.9 76.7,14 67,14 67,30 77.4,51.4 88.4,51.1 91.9,51.4 98.2,52.6 		"/>
		<polygon class="st4" points="18.4,92 9.3,106.6 4,115.8 14.3,136.2 63.9,136.2 74,129.2 75,116.4 54.9,113.3 34.8,103.9 
			27.8,93.1 		"/>
		<polygon class="st4" points="50.6,30.3 35.8,55.4 38.8,78.8 58.6,61.3 		"/>
		<polygon class="st4" points="136,115.8 109.3,116.2 100.6,122.1 96.6,127.9 91.2,133.2 109.8,135.2 132.7,126.9 		"/>
		<polygon class="st0" points="132.7,128.4 136,116.8 130.5,126.3 109.2,131.7 77.3,132.9 73.6,129 56.8,129.4 51.4,124.9 
			47.6,124.8 37.6,131.5 27.4,125 21.3,126.4 12.8,123.1 4.3,117.1 14.3,137.2 61.1,140 71.7,137.2 109.8,137.2 		"/>
		<polygon class="st4" points="77,14 67,14 67,30 77.4,51.4 79.2,45.8 78.9,30.1 		"/>
		<polygon class="st1" points="104.9,101.1 113.6,105 132.6,105.4 129.9,97.7 		"/>
	</g>
</g>
</svg>
