<?xml version="1.0" encoding="utf-8"?>
<!-- Generator: Adobe Illustrator 21.0.2, SVG Export Plug-In . SVG Version: 6.00 Build 0)  -->
<svg version="1.1" xmlns="http://www.w3.org/2000/svg" xmlns:xlink="http://www.w3.org/1999/xlink" x="0px" y="0px"
	 viewBox="0 0 145 240" style="enable-background:new 0 0 145 240;" xml:space="preserve">
<style type="text/css">
	.st0{fill:#A65236;}
	.st1{fill:#FFCC99;}
	.st2{fill:#FB9768;}
	.st3{fill:#EC754F;}
	.st4{fill:#C96442;}
</style>
<g id="stone3">
	<g>
		<polygon class="st0" points="145,201.5 136.4,175.4 133.9,57.9 113,19.4 65,0 49.1,19.7 44.3,45.8 28,58.9 28,82 0,206.7 
			14.8,233.2 57,240 83.8,228 106.8,235.6 141.5,223.3 		"/>
		<polygon class="st1" points="137.7,198.5 131.1,177.5 130.4,58.9 111.3,21.6 65.8,3.7 53.2,20.4 48.8,49.5 32.3,62.2 32.9,83.3 
			10,201.5 21.8,224 58.5,230.3 82.9,221 103.9,228 135.6,216.7 		"/>
		<polygon class="st2" points="137.7,198.5 131.1,177.5 130.4,58.9 94.2,50.9 72.1,20.7 62.5,29.8 52.9,20.7 48.8,49.5 38.5,66.9 
			58.7,94 32.9,83.3 10,201.5 21.8,224 58.5,230.3 82.9,221 103.9,228 135.6,216.7 		"/>
		<polygon class="st4" points="65.4,47.8 49.1,49.9 58.7,94 32.8,83 9.8,201.5 22.2,223.6 58.7,230.6 82.7,220.6 103.8,228.6 
			135.4,216.6 137.3,198.5 131.6,177.4 130.7,108.5 130.6,58.9 122.9,95 90.3,89 74,76 		"/>
		<polygon class="st3" points="65.4,47.8 49.1,49.9 58.7,94 32.8,83 9.8,201.5 22.2,223.6 58.7,230.6 82.7,220.6 103.8,228.6 
			135.4,216.6 137.3,198.5 131.6,177.4 130.7,108.5 130.6,58.9 122.9,95 90.3,89 74,76 		"/>
		<polygon class="st4" points="38.5,178.4 22.2,138.2 9.8,201.5 22.2,223.6 58.7,230.6 82.7,220.6 103.8,228.6 135.4,216.6 
			139.2,199.5 131.6,177.4 120.1,196.5 115.3,169.4 116.2,150.3 106.6,140.2 83.6,169.4 		"/>
		<polygon class="st0" points="19.3,208.5 18.4,157.3 6.9,203.5 20.3,227.6 57.7,234.6 82.7,224.6 105.7,231.6 138.5,217 
			139.2,208.5 131.6,201.5 120.1,196.5 115.3,169.4 105.6,160.2 84.6,212.5 62.9,215.3 56.8,202.5 		"/>
		<polygon class="st1" points="65.4,47.8 78.8,73 91.3,85 122.9,95 90.3,89 74,76 		"/>
		<polygon class="st4" points="30.6,95.3 22.2,138.2 31.8,165.1 38.5,178.1 78.8,158.3 106.6,125.2 131.6,140.2 130.6,92 122.9,95 
			120.1,116.1 101.8,111.1 85.8,118.6 56.8,118.1 48.1,103.1 		"/>
		<polygon class="st0" points="56.8,118.1 31.5,164.6 38.3,177.7 78.8,158.3 106.6,125.2 85.5,118.1 		"/>
		<polygon class="st2" points="63.5,112.1 101.8,111.1 85.8,118.6 53.9,123.2 48.1,103.1 		"/>
		<polygon class="st4" points="49.1,49.9 65.4,47.8 74,76 58.7,94 		"/>
	</g>
</g>
</svg>
