<?xml version="1.0" encoding="utf-8"?>
<!-- Generator: Adobe Illustrator 21.0.2, SVG Export Plug-In . SVG Version: 6.00 Build 0)  -->
<svg version="1.1" id="圖層_1" xmlns="http://www.w3.org/2000/svg" xmlns:xlink="http://www.w3.org/1999/xlink" x="0px" y="0px"
	 viewBox="0 0 128 66.4" style="enable-background:new 0 0 128 66.4;" xml:space="preserve">
<style type="text/css">
	.st0{fill:#004B8A;}
	.st1{fill:#CEEAF7;}
	.st2{opacity:0.4;fill:#FFFFFF;}
	.st3{display:none;opacity:0.4;fill:#0077D9;}
	.st4{display:none;fill:#004B8A;}
	.st5{fill:#FFCC54;}
	.st6{fill:#5FA8ED;}
	.st7{fill:#0077D9;}
	.st8{fill:#FFE863;}
</style>
<g>
	<path class="st0" d="M64,66.4c-11.5,0-21.4-3.9-25.3-9.7h-6.5c-3.1,0-6-1.4-7.9-3.7h-4.9c-2.6,0-4.9-1.7-5.9-4.1H8.8
		C4,49,0,44.9,0,40c0-4.9,4-8.9,8.8-8.9h4.6c0.9-2.4,3.2-4.1,5.9-4.1h3c1.4-3.8,5-6.5,9-6.8l2.2-2.4c0.2-0.2,0.3-0.3,0.5-0.4
		C36.9,8,47.7,1,61.2,0.1C63,0,64.7,0,66.3,0.1l0.4,0c0.7,0,1.5,0.1,2.2,0.2l0.3,0c0.8,0.1,1.5,0.2,2.3,0.3c0,0,0.1,0,0.1,0
		c0.7,0.1,1.4,0.3,2.1,0.5l0.3,0.1c0.7,0.2,1.4,0.4,2,0.6l0.4,0.1c0.7,0.2,1.3,0.4,2,0.7l0.1,0.1c0.7,0.3,1.3,0.5,1.9,0.8l0.2,0.1
		c0.6,0.3,1.2,0.6,1.8,0.9l0.3,0.2c0.6,0.3,1.1,0.6,1.7,1l0.2,0.1c0.6,0.4,1.1,0.7,1.6,1.1c0,0,0.1,0.1,0.1,0.1
		c0.5,0.4,0.9,0.8,1.5,1.2c0,0,0.1,0.1,0.1,0.1L88,8.3c0.5,0.4,0.9,0.8,1.3,1.3l0.1,0.1c0.9,1,1.7,2,2.3,3l0.1,0.2
		c0.3,0.5,0.6,1,0.9,1.5l0.1,0.2c0.4,0.9,0.8,1.8,1.1,2.7c0.2,0.1,0.4,0.2,0.5,0.4l2.2,2.4c4.1,0.3,7.6,3,9,6.8h3
		c2.6,0,4.9,1.7,5.9,4.1h4.6c4.9,0,8.8,4,8.8,8.9c0,4.9-4,8.9-8.8,8.9h-4.6c-0.9,2.4-3.2,4.1-5.9,4.1h-4.9c-2,2.3-4.9,3.7-7.9,3.7
		h-6.5C85.4,62.6,75.5,66.4,64,66.4z"/>
	<g>
		<g>
			<ellipse class="st1" cx="64" cy="22" rx="28.6" ry="20"/>
			<path class="st2" d="M91.7,17c-0.9,0.1-1.8,0.1-2.7,0.1c-13.3,0-24.5-6.4-27.7-15C62.2,2,63.1,2,64,2C77.3,2,88.5,8.4,91.7,17z"
				/>
		</g>
		<g>
			<polygon class="st0" points="97,23.6 31,23.6 35.1,19.1 92.9,19.1 			"/>
			<polygon class="st3" points="90.9,23.6 37.1,23.6 40.5,19.1 87.5,19.1 			"/>
			<polygon class="st4" points="83.5,23.6 44.5,23.6 46.9,19.1 81.1,19.1 			"/>
			<polygon class="st3" points="75.4,23.6 52.6,23.6 54,19.1 74,19.1 			"/>
			<polygon class="st4" points="68.1,23.6 59.9,23.6 60.4,19.1 67.6,19.1 			"/>
		</g>
		<ellipse class="st5" cx="64" cy="51.2" rx="25.1" ry="13.2"/>
		<path class="st6" d="M104.3,30.7c0-4.7-3.8-8.6-8.5-8.6H32.2c-4.7,0-8.5,3.8-8.5,8.6v0.4c0,4.7,3.8,8.6,8.5,8.6h63.7
			c4.7,0,8.5-3.8,8.5-8.6V30.7z"/>
		<path class="st6" d="M104.3,30.7c0-4.7-3.8-8.6-8.5-8.6H32.2c-4.7,0-8.5,3.8-8.5,8.6v15.4c0,4.7,3.8,8.6,8.5,8.6h63.7
			c4.7,0,8.5-3.8,8.5-8.6V30.7z"/>
		<g>
			<path class="st0" d="M113,33.4c0,2.4-1.9,4.4-4.3,4.4H19.3c-2.4,0-4.3-2-4.3-4.4l0,0c0-2.4,1.9-4.4,4.3-4.4h89.3
				C111.1,29,113,31,113,33.4L113,33.4z"/>
			<path class="st0" d="M113,46.6c0,2.4-1.9,4.4-4.3,4.4H19.3c-2.4,0-4.3-2-4.3-4.4l0,0c0-2.4,1.9-4.4,4.3-4.4h89.3
				C111.1,42.2,113,44.2,113,46.6L113,46.6z"/>
		</g>
		<path class="st7" d="M126,40c0,3.8-3.1,6.9-6.8,6.9H8.8C5.1,47,2,43.8,2,40l0,0c0-3.8,3.1-6.9,6.8-6.9h110.3
			C122.9,33.1,126,36.2,126,40L126,40z"/>
		<g>
			<ellipse class="st0" cx="10.9" cy="40" rx="4.4" ry="4.4"/>
		</g>
		<ellipse class="st8" cx="10.9" cy="40" rx="3.2" ry="3.2"/>
		<g>
			<ellipse class="st0" cx="46.3" cy="40" rx="4.4" ry="4.4"/>
		</g>
		<ellipse class="st8" cx="46.3" cy="40" rx="3.2" ry="3.2"/>
		<g>
			<ellipse class="st0" cx="28.6" cy="40" rx="4.4" ry="4.4"/>
		</g>
		<ellipse class="st8" cx="28.6" cy="40" rx="3.2" ry="3.2"/>
		<g>
			<ellipse class="st0" cx="64" cy="40" rx="4.4" ry="4.4"/>
		</g>
		<ellipse class="st8" cx="64" cy="40" rx="3.2" ry="3.2"/>
		<g>
			<ellipse class="st0" cx="81.7" cy="40" rx="4.4" ry="4.4"/>
		</g>
		<ellipse class="st8" cx="81.7" cy="40" rx="3.2" ry="3.2"/>
		<g>
			<ellipse class="st0" cx="99.4" cy="40" rx="4.4" ry="4.4"/>
		</g>
		<ellipse class="st8" cx="99.4" cy="40" rx="3.2" ry="3.2"/>
		<g>
			<ellipse class="st0" cx="117.1" cy="40" rx="4.4" ry="4.4"/>
		</g>
		<ellipse class="st8" cx="117.1" cy="40" rx="3.2" ry="3.2"/>
	</g>
</g>
</svg>
